<svg id="Layer_1" data-name="Layer 1" xmlns="http://www.w3.org/2000/svg" viewBox="0 0 1762.5 1762.54"><path d="M1905,1024.25c0,486.72-394.55,881.27-881.23,881.27q-29.4,0-58.36-1.9c10.38-22,15.41-48.33,15.41-79.28v-587.1c0-142.1.27-284.19-.18-426.24-.17-63.26-36.77-115.09-94.33-136.23-59.42-21.85-120.07-6.14-162,41.89-4.33,5-9,9.71-13.64,14.39q-126.95,126.81-254,253.6c-28.07,28-56.9,55.4-83.83,84.58-41.49,44.94-48.07,112.3-18,165.94a145.85,145.85,0,0,0,151.14,72.21c41.19-6.79,70.67-31.12,98.31-59.77,26.93-28,54.87-55.17,85.55-85.85v23.39c0,340.34,0,307.9,0,648.24,0,2.3,0,4.55.18,6.8-321.32-131.55-547.64-447.3-547.64-815.94C142.5,537.53,537.05,143,1023.77,143q22.18,0,44.06,1.1a232.92,232.92,0,0,0-1.15,24.06V755.29c0,142.09-.27,284.19.18,426.24.17,63.26,36.77,115.08,94.33,136.23,59.42,21.85,120.07,6.13,162-41.89,4.33-4.95,9-9.72,13.64-14.39q126.95-126.81,254-253.61c28.07-28,56.9-55.4,83.83-84.58,41.49-44.93,48.07-112.29,18-165.93a145.85,145.85,0,0,0-151.14-72.22c-41.19,6.8-70.68,31.12-98.31,59.77-26.93,28-54.87,55.18-85.55,85.86V807.38c0-323,.05-310.29,0-599C1678.72,339.94,1905,655.66,1905,1024.25Z" transform="translate(-142.5 -142.98)"/></svg>